#N canvas 703 219 606 415 10;
#X obj 39 19 osc~ 440;
#X obj 41 219 dac~;
#X obj 189 20 osc~ 221;
#X obj 326 309 s matrix;
#X obj 39 48 vcv-out~ 20 0;
#X msg 292 125 connect 10 0 20 0;
#X msg 316 147 connect 10 0 20 1;
#X msg 336 167 connect 10 1 20 0;
#X msg 352 189 connect 10 1 20 1;
#X msg 388 211 disconnect 10 0 20 0;
#X msg 412 233 disconnect 10 0 20 1;
#X msg 432 253 disconnect 10 1 20 0;
#X msg 448 275 disconnect 10 1 20 1;
#X msg 259 233 reset;
#X obj 41 134 vcv-in~ 10 0 20;
#X obj 61 188 vcv-in~ 10 1 20;
#X obj 189 46 vcv-out~ 20 1;
#X connect 0 0 4 0;
#X connect 2 0 16 0;
#X connect 5 0 3 0;
#X connect 6 0 3 0;
#X connect 7 0 3 0;
#X connect 8 0 3 0;
#X connect 9 0 3 0;
#X connect 10 0 3 0;
#X connect 11 0 3 0;
#X connect 12 0 3 0;
#X connect 13 0 3 0;
#X connect 14 0 1 0;
#X connect 15 0 1 1;
