#N canvas 171 236 1055 687 10;
#X obj 265 436 *~;
#X obj 158 190 trigger a a;
#X msg 264 307 set out-\$1-\$2;
#X obj 268 215 route 1 0;
#X obj 434 260 bng 15 250 50 0 empty empty empty 17 7 0 10 -262144
-1 -1;
#X obj 434 287 delay \$1;
#X obj 158 271 list \$1;
#X obj 156 231 unpack f f f;
#X msg 245 125 0 0 0;
#X text 71 15 Implement a smooth connection/disconnection with a VCA
ramp of \$1 ms input: #state #module #port;
#X obj 158 304 line~;
#X obj 156 347 s~ \$0-ramp;
#X obj 279 395 r~ \$0-ramp;
#X obj 265 351 receive~;
#X obj 481 400 switch~;
#X obj 418 355 tgl 15 0 empty empty empty 17 7 0 10 -262144 -1 -1 0
1;
#X msg 434 317 0;
#X msg 399 316 1;
#X obj 385 447 change;
#X obj 158 93 inlet CTRL;
#X obj 245 92 inlet CLEAR;
#X obj 267 476 outlet~ SIG;
#X obj 385 477 outlet BUSY;
#X connect 0 0 21 0;
#X connect 1 0 7 0;
#X connect 1 1 3 0;
#X connect 2 0 13 0;
#X connect 3 0 2 0;
#X connect 3 0 17 0;
#X connect 3 1 4 0;
#X connect 4 0 5 0;
#X connect 5 0 16 0;
#X connect 6 0 10 0;
#X connect 7 0 6 0;
#X connect 8 0 1 0;
#X connect 10 0 11 0;
#X connect 12 0 0 1;
#X connect 13 0 0 0;
#X connect 15 0 14 0;
#X connect 15 0 18 0;
#X connect 16 0 15 0;
#X connect 17 0 15 0;
#X connect 18 0 22 0;
#X connect 19 0 1 0;
#X connect 20 0 8 0;
