#N canvas 333 125 1055 767 10;
#X obj 29 167 route \$2;
#X text 125 9 connect dest_module dest_port src_module src_port disconnect
dest_module dest_port src_module src_port;
#X obj 576 295 s matrix;
#X msg 31 96 \$1 \$2 \$3 \$4 1;
#X msg 125 98 \$1 \$2 \$3 \$4 0;
#X msg 530 119 connect 10 0 20 0;
#X msg 554 141 connect 10 0 20 1;
#X msg 574 161 connect 10 1 20 0;
#X msg 590 183 connect 10 1 20 1;
#X msg 626 205 disconnect 10 0 20 0;
#X msg 650 227 disconnect 10 0 20 1;
#X msg 670 247 disconnect 10 1 20 0;
#X msg 686 269 disconnect 10 1 20 1;
#X obj 31 237 route 1 2 3 4;
#X obj 29 276 vcv-in-connector~ \$3;
#X obj 49 310 vcv-in-connector~ \$3;
#X obj 67 354 vcv-in-connector~ \$3;
#X obj 87 388 vcv-in-connector~ \$3;
#X msg 159 154 clear;
#X obj 28 58 route connect disconnect reset;
#X msg 499 219 reset;
#X obj 29 200 vcv-dispatch 4;
#X text 493 83 Debug section;
#X floatatom 286 417 5 0 0 0 - - -;
#X obj 286 339 expr 2*$f1 - 1 + $f2;
#X obj 442 341 loadbang;
#X msg 442 370 0;
#X obj 284 508 line~;
#X obj 278 477 list \$3;
#X obj 276 449 clip 1 100;
#X obj 34 588 /~;
#X obj 33 636 outlet~ SIG;
#X obj 29 137 route \$1;
#X obj 130 591 inlet~ DIRECT;
#X obj 206 213 print vcv-matrix: \$1 \$2;
#X obj 222 267 print vcv-matrix overflow;
#X obj 28 19 r vcv-matrix;
#X connect 0 0 21 0;
#X connect 0 0 34 0;
#X connect 3 0 32 0;
#X connect 4 0 32 0;
#X connect 5 0 2 0;
#X connect 6 0 2 0;
#X connect 7 0 2 0;
#X connect 8 0 2 0;
#X connect 9 0 2 0;
#X connect 10 0 2 0;
#X connect 11 0 2 0;
#X connect 12 0 2 0;
#X connect 13 0 14 0;
#X connect 13 1 15 0;
#X connect 13 2 16 0;
#X connect 13 3 17 0;
#X connect 13 4 35 0;
#X connect 14 0 30 0;
#X connect 14 1 24 0;
#X connect 15 0 30 0;
#X connect 15 1 24 0;
#X connect 16 0 30 0;
#X connect 16 1 24 0;
#X connect 17 0 30 0;
#X connect 17 1 24 0;
#X connect 18 0 21 1;
#X connect 18 0 15 1;
#X connect 18 0 16 1;
#X connect 18 0 17 1;
#X connect 18 0 14 1;
#X connect 19 0 3 0;
#X connect 19 1 4 0;
#X connect 19 2 18 0;
#X connect 20 0 2 0;
#X connect 21 0 13 0;
#X connect 23 0 24 1;
#X connect 23 0 29 0;
#X connect 24 0 23 0;
#X connect 25 0 26 0;
#X connect 26 0 23 0;
#X connect 26 0 28 0;
#X connect 27 0 30 1;
#X connect 28 0 27 0;
#X connect 29 0 28 0;
#X connect 30 0 31 0;
#X connect 32 0 0 0;
#X connect 33 0 31 0;
#X connect 36 0 19 0;
