#N canvas 536 220 778 708 12;
#X msg 70 150 bang;
#X obj 70 217 t b b b;
#X obj 168 234 f;
#X obj 197 234 + 1;
#X obj 168 323 + 1;
#X obj 229 167 delay 250;
#X msg 229 277 \; pd-modules vis 0;
#X obj 229 189 t b b;
#X msg 256 237 \; pd-main.pd editmode 1;
#X obj 89 382 pack s f;
#X msg 183 126 0;
#X msg 89 407 \; pd-main.pd obj 200 200 \$1 \$2;
#X obj 168 346 nbx 5 14 -1e+37 1e+37 0 1 empty empty empty 0 -8 0 10
-262144 -1 -1 2 256;
#X obj 70 453 t b b;
#X msg 70 575 loadbang;
#X obj 97 477 s SAVE-S;
#X obj 70 528 delay 100;
#X obj 314 382 f;
#X obj 314 344 loadbang;
#X obj 168 365 t f f;
#X obj 70 628 s pd-basic-osc.pd;
#X text 78 19 automatonism-open pid module_name;
#X obj 183 104 r \$1-reset!;
#X obj 70 63 r \$1-create-\$2!;
#X obj 420 92 loadbang;
#X obj 420 135 print \$1-create-\$2!;
#X obj 382 109 bng 15 250 50 0 empty empty empty 17 7 0 10 -262144
-1 -1;
#X obj 91 304 symbol \$2;
#X connect 0 0 1 0;
#X connect 0 0 5 0;
#X connect 1 0 13 0;
#X connect 1 1 27 0;
#X connect 1 2 2 0;
#X connect 2 0 3 0;
#X connect 2 0 4 0;
#X connect 3 0 2 1;
#X connect 4 0 12 0;
#X connect 5 0 7 0;
#X connect 7 0 6 0;
#X connect 7 1 8 0;
#X connect 9 0 11 0;
#X connect 10 0 2 1;
#X connect 10 0 12 0;
#X connect 12 0 19 0;
#X connect 13 0 16 0;
#X connect 13 1 15 0;
#X connect 14 0 20 0;
#X connect 16 0 14 0;
#X connect 17 0 2 1;
#X connect 18 0 17 0;
#X connect 19 0 9 1;
#X connect 19 1 17 1;
#X connect 22 0 10 0;
#X connect 23 0 0 0;
#X connect 24 0 25 0;
#X connect 26 0 25 0;
#X connect 27 0 9 0;
